<?xml version="1.0" standalone="no"?><!DOCTYPE svg PUBLIC "-//W3C//DTD SVG 1.1//EN" "http://www.w3.org/Graphics/SVG/1.1/DTD/svg11.dtd"><svg t="1625299544326" class="icon" viewBox="0 0 1024 1024" version="1.1" xmlns="http://www.w3.org/2000/svg" p-id="4701" xmlns:xlink="http://www.w3.org/1999/xlink" width="200" height="200"><defs><style type="text/css"></style></defs><path d="M844.8 224l-12.8-25.6-19.2 19.2L710.4 320c-12.8 12.8-32 19.2-51.2 19.2-19.2 0-38.4-6.4-51.2-19.2-12.8-12.8-19.2-32-19.2-51.2 0-19.2 6.4-38.4 19.2-51.2l121.6-121.6-25.6-12.8c-32-12.8-64-19.2-102.4-19.2-70.4 0-134.4 25.6-179.2 76.8-70.4 76.8-89.6 185.6-51.2 281.6l-256 256c-38.4 38.4-38.4 102.4 0 140.8 19.2 19.2 44.8 32 70.4 32s51.2-6.4 70.4-32l256-256c32 12.8 64 19.2 96 19.2 70.4 0 134.4-25.6 179.2-76.8 76.8-76.8 96-185.6 57.6-281.6z m-83.2 256c-44.8 44.8-96 64-153.6 64-32-6.4-64-12.8-96-25.6L499.2 512l-275.2 275.2c-12.8 12.8-25.6 19.2-44.8 19.2s-32-6.4-44.8-19.2c-25.6-25.6-25.6-57.6 0-83.2l275.2-275.2v-12.8c-38.4-83.2-19.2-185.6 44.8-243.2 44.8-44.8 96-64 153.6-64 19.2 0 38.4 0 51.2 6.4L582.4 192c-25.6 25.6-32 51.2-32 83.2s12.8 57.6 32 76.8c19.2 19.2 44.8 32 76.8 32s57.6-12.8 76.8-32l83.2-83.2c19.2 76.8 0 153.6-57.6 211.2zM838.4 595.2v19.2l57.6 19.2 19.2-12.8 32 32-12.8 19.2c12.8 19.2 19.2 32 25.6 57.6h19.2v44.8H960l-19.2 57.6 12.8 19.2-32 32-25.6-12.8c-19.2 12.8-32 19.2-57.6 25.6v19.2h-44.8V896l-57.6-19.2-19.2 12.8-32-32 12.8-19.2c-12.8-19.2-19.2-32-25.6-57.6h-19.2v-44.8h19.2l19.2-57.6-12.8-19.2 32-32 19.2 12.8c19.2-12.8 32-19.2 57.6-25.6v-19.2h51.2m0-25.6h-44.8c-12.8 0-25.6 6.4-25.6 19.2v6.4c-12.8 0-19.2 6.4-32 12.8h-6.4c-6.4-6.4-12.8-6.4-12.8-6.4-6.4 0-12.8 0-19.2 6.4l-32 32c-6.4 6.4-12.8 25.6 0 32v6.4c-6.4 12.8-6.4 19.2-12.8 32h-6.4c-12.8 0-19.2 12.8-19.2 25.6v44.8c0 12.8 6.4 25.6 19.2 25.6h6.4c0 12.8 6.4 19.2 12.8 32v6.4c-6.4 12.8-6.4 25.6 0 32l32 32c6.4 6.4 12.8 6.4 19.2 6.4 6.4 0 12.8 0 12.8-6.4h6.4c12.8 6.4 19.2 6.4 32 12.8v6.4c0 12.8 12.8 19.2 25.6 19.2h44.8c12.8 0 25.6-6.4 25.6-19.2v-6.4c12.8 0 19.2-6.4 32-12.8h6.4c6.4 6.4 12.8 6.4 12.8 6.4 6.4 0 12.8 0 19.2-6.4l32-32c6.4-6.4 12.8-25.6 0-32v-6.4c6.4-12.8 6.4-19.2 12.8-32h6.4c12.8 0 19.2-12.8 19.2-25.6v-44.8c0-12.8-6.4-25.6-19.2-25.6h-6.4c0-12.8-6.4-19.2-12.8-32v-6.4c6.4-12.8 6.4-25.6 0-32l-32-32c-6.4-6.4-12.8-6.4-19.2-6.4-6.4 0-12.8 0-12.8 6.4H896c-12.8-6.4-19.2-6.4-32-12.8v-6.4c-6.4-6.4-12.8-19.2-25.6-19.2z" fill="#1185CC" p-id="4702"></path><path d="M812.8 665.6c51.2 0 89.6 38.4 89.6 89.6 0 51.2-38.4 89.6-89.6 89.6s-89.6-38.4-89.6-89.6c0-51.2 38.4-89.6 89.6-89.6m0-25.6c-64 0-115.2 51.2-115.2 115.2s51.2 115.2 115.2 115.2 115.2-51.2 115.2-115.2-51.2-115.2-115.2-115.2z" fill="#1185CC" p-id="4703"></path></svg>