<?xml version="1.0" standalone="no"?><!DOCTYPE svg PUBLIC "-//W3C//DTD SVG 1.1//EN" "http://www.w3.org/Graphics/SVG/1.1/DTD/svg11.dtd"><svg t="1625299529772" class="icon" viewBox="0 0 1024 1024" version="1.1" xmlns="http://www.w3.org/2000/svg" p-id="3887" xmlns:xlink="http://www.w3.org/1999/xlink" width="200" height="200"><defs><style type="text/css"></style></defs><path d="M961.8688 187.52v355.6352S960.3072 857.4976 512 1024C63.6928 857.4976 62.1312 543.1552 62.1312 543.1552V187.52S51.2 103.4752 80.8704 103.4752C158.976 103.4752 512 0 512 0s353.024 103.4752 431.1296 103.4752c29.6704 0 18.7392 84.0448 18.7392 84.0448zM895.232 144.3072C825.8048 144.3072 512 51.2 512 51.2S198.1952 144.3072 128.768 144.3072c-26.368 0-16.64 75.648-16.64 75.648v320.0512s1.3824 282.9312 399.872 432.768c398.4896-149.8624 399.872-432.768 399.872-432.768V219.9552s9.728-75.648-16.64-75.648zM611.3024 580.6336c-0.5376 2.8928-1.3568 4.8128-2.816 4.864l-101.3504 175.5648a12.8 12.8 0 0 1-17.4848 4.6848l-22.1696-12.8a12.8 12.8 0 0 1-4.6848-17.4848l101.4272-175.6928-172.2624-102.3488a12.8 12.8 0 0 1-5.248-15.3088 12.8 12.8 0 0 1-0.7424-13.8496l128-221.696a12.8 12.8 0 0 1 17.4848-4.6848l22.1696 12.8a12.8 12.8 0 0 1 4.6848 17.4848l-113.9456 197.3504 145.2288 86.2976 1.1776-2.048c21.2224 9.3184 40.064 32.9984 40.064 32.9984l-19.5328 33.8688z" fill="#2C72BA" p-id="3888"></path></svg>