<?xml version="1.0" encoding="utf-8"?>
<svg version="1.1" xmlns:xlink="http://www.w3.org/1999/xlink" width="20px" height="20px" xmlns="http://www.w3.org/2000/svg">
  <g transform="matrix(1 0 0 1 -8 -124 )">
    <path d="M 19.2067307692308 4.57386363636363  C 19.7355769230769 5.19886363636363  20 5.9469696969697  20 6.81818181818182  L 20 16.8181818181818  C 20 17.6893939393939  19.7355769230769 18.4375  19.2067307692308 19.0625  C 18.6778846153846 19.6875  18.0448717948718 20  17.3076923076923 20  L 2.69230769230769 20  C 1.95512820512821 20  1.32211538461539 19.6875  0.793269230769231 19.0625  C 0.264423076923077 18.4375  0 17.6893939393939  0 16.8181818181818  L 0 3.18181818181818  C 0 2.31060606060606  0.264423076923077 1.5625  0.793269230769231 0.9375  C 1.32211538461539 0.3125  1.95512820512821 0  2.69230769230769 0  L 6.53846153846154 0  C 7.27564102564103 0  7.90865384615385 0.3125  8.4375 0.9375  C 8.96634615384615 1.5625  9.23076923076923 2.31060606060606  9.23076923076923 3.18181818181818  L 9.23076923076923 3.63636363636364  L 17.3076923076923 3.63636363636364  C 18.0448717948718 3.63636363636364  18.6778846153846 3.94886363636364  19.2067307692308 4.57386363636363  Z " fill-rule="nonzero" fill="#1890ff" stroke="none" transform="matrix(1 0 0 1 8 124 )" />
  </g>
</svg>