<?xml version="1.0" encoding="utf-8"?>
<!-- Generator: Adobe Illustrator 24.1.0, SVG Export Plug-In . SVG Version: 6.00 Build 0)  -->
<svg version="1.1" id="图层_1" xmlns="http://www.w3.org/2000/svg" xmlns:xlink="http://www.w3.org/1999/xlink" x="0px" y="0px"
	 viewBox="0 0 15 15" style="enable-background:new 0 0 15 15;" xml:space="preserve">
<style type="text/css">
	.st0{fill:#2EC0F6;}
</style>
<g>
	<g>
		<g>
			<path class="st0" d="M10.7,7.5l4.3-3.5V11L10.7,7.5z M9,8.9l0.9-0.7l5.1,4.1c-0.1,0.5-0.4,0.9-0.8,1.1c-0.2,0.1-0.5,0.2-0.7,0.2
				H1.6c-0.4,0-0.7-0.1-1-0.4c-0.3-0.2-0.4-0.6-0.5-0.9l5.1-4.1l0.9,0.7C6.5,9.3,7,9.4,7.5,9.4C8,9.4,8.5,9.3,9,8.9L9,8.9z M0.1,4.1
				l4.3,3.5L0.1,11L0.1,4.1L0.1,4.1z M6,7.5L5.2,6.9l-5-4.1c0.2-0.7,0.8-1.2,1.5-1.2h11.8c0.7,0,1.3,0.5,1.5,1.2l-5,4.1L9,7.5
				L8.3,8.1c-0.5,0.4-1.2,0.4-1.6,0L6,7.5L6,7.5z M6,7.5"/>
		</g>
	</g>
</g>
</svg>
