<?xml version="1.0" encoding="utf-8"?>
<svg version="1.1" xmlns:xlink="http://www.w3.org/1999/xlink" width="15px" height="15px" xmlns="http://www.w3.org/2000/svg">
  <g transform="matrix(1 0 0 1 -32 -132 )">
    <path d="M 4.16666666666667 4.77272727272727  L 4.16666666666667 6.81818181818182  L 10.8333333333333 6.81818181818182  L 10.8333333333333 4.77272727272727  C 10.8333333333333 4.01988636363636  10.5078125 3.37713068181818  9.85677083333333 2.84446022727273  C 9.20572916666667 2.31178977272727  8.42013888888889 2.04545454545455  7.5 2.04545454545455  C 6.57986111111111 2.04545454545455  5.79427083333333 2.31178977272727  5.14322916666667 2.84446022727273  C 4.4921875 3.37713068181818  4.16666666666667 4.01988636363636  4.16666666666667 4.77272727272727  Z M 14.6354166666667 7.11647727272727  C 14.8784722222222 7.31534090909091  15 7.55681818181818  15 7.84090909090909  L 15 13.9772727272727  C 15 14.2613636363636  14.8784722222222 14.5028409090909  14.6354166666667 14.7017045454545  C 14.3923611111111 14.9005681818182  14.0972222222222 15  13.75 15  L 1.25 15  C 0.902777777777778 15  0.607638888888889 14.9005681818182  0.364583333333333 14.7017045454545  C 0.121527777777778 14.5028409090909  0 14.2613636363636  0 13.9772727272727  L 0 7.84090909090909  C 0 7.55681818181818  0.121527777777778 7.31534090909091  0.364583333333333 7.11647727272727  C 0.607638888888889 6.91761363636364  0.902777777777778 6.81818181818182  1.25 6.81818181818182  L 1.66666666666667 6.81818181818182  L 1.66666666666667 4.77272727272727  C 1.66666666666667 3.46590909090909  2.23958333333333 2.34375  3.38541666666667 1.40625  C 4.53125 0.46875  5.90277777777778 0  7.5 0  C 9.09722222222222 0  10.46875 0.46875  11.6145833333333 1.40625  C 12.7604166666667 2.34375  13.3333333333333 3.46590909090909  13.3333333333333 4.77272727272727  L 13.3333333333333 6.81818181818182  L 13.75 6.81818181818182  C 14.0972222222222 6.81818181818182  14.3923611111111 6.91761363636364  14.6354166666667 7.11647727272727  Z " fill-rule="nonzero" fill="#2ec0f6" stroke="none" fill-opacity="0.996078431372549" transform="matrix(1 0 0 1 32 132 )" />
  </g>
</svg>