<?xml version="1.0" standalone="no"?><!DOCTYPE svg PUBLIC "-//W3C//DTD SVG 1.1//EN" "http://www.w3.org/Graphics/SVG/1.1/DTD/svg11.dtd"><svg t="1625299507648" class="icon" viewBox="0 0 1024 1024" version="1.1" xmlns="http://www.w3.org/2000/svg" p-id="3588" xmlns:xlink="http://www.w3.org/1999/xlink" width="200" height="200"><defs><style type="text/css"></style></defs><path d="M761.358629 322.881829C761.344 184.963657 649.537829 73.142857 511.619657 73.142857c-137.918171 0-249.724343 111.806171-249.738971 249.709714h499.477943z m156.101485 249.636571h-93.652114v-143.550171l79.286857-79.2576a31.3344 31.3344 0 1 0-44.324571-44.324572l-62.464 62.420114H234.408229l-62.420115-62.405485a31.349029 31.349029 0 1 0-44.353828 44.324571l71.811657 79.242972v143.550171H105.7792a31.202743 31.202743 0 1 0 0 62.376229h93.652114v31.217371a277.284571 277.284571 0 0 0 37.449143 137.303771l-90.638628 89.863315a31.3344 31.3344 0 1 0 44.324571 44.324571l83.646171-83.017143a279.873829 279.873829 0 0 0 206.072686 92.3648h3.715657V406.498743h62.464v540.452571a279.873829 279.873829 0 0 0 202.898286-92.3648l83.675429 83.631543a31.3344 31.3344 0 0 0 44.309942-44.324571l-88.020114-87.990857a276.538514 276.538514 0 0 0 34.347886-140.405029V634.88h93.652114a31.202743 31.202743 0 1 0 0.131657-62.376229z" fill="#78E6F3" p-id="3589"></path></svg>