<?xml version="1.0" standalone="no"?><!DOCTYPE svg PUBLIC "-//W3C//DTD SVG 1.1//EN" "http://www.w3.org/Graphics/SVG/1.1/DTD/svg11.dtd"><svg t="1625299459402" class="icon" viewBox="0 0 1041 1024" version="1.1" xmlns="http://www.w3.org/2000/svg" p-id="1273" xmlns:xlink="http://www.w3.org/1999/xlink" width="203.3203125" height="200"><defs><style type="text/css"></style></defs><path d="M924.501333 338.432h-648.533333v-17.066667a247.466667 247.466667 0 0 1 487.594667-59.904l66.218666-17.066666C791.176533 89.6 643.157333-12.066133 484.829867 7.441067 326.5024 26.965333 207.598933 161.501867 207.701333 321.024v17.066667h-102.4a102.4 102.4 0 0 0-102.4 102.4v477.866666a102.4 102.4 0 0 0 102.4 102.4h819.2a102.4 102.4 0 0 0 102.4-102.4v-477.866666a102.4 102.4 0 0 0-102.4-102.058667z m34.133334 580.266667a34.133333 34.133333 0 0 1-34.133334 34.133333h-819.2a34.133333 34.133333 0 0 1-34.133333-34.133333v-477.866667a34.133333 34.133333 0 0 1 34.133333-34.133333h819.2a34.133333 34.133333 0 0 1 34.133334 34.133333v477.866667z" fill="#07B5F9" p-id="1274"></path><path d="M514.901333 526.165333a102.4 102.4 0 0 0-34.133333 198.826667v116.906667a34.133333 34.133333 0 1 0 68.266667 0v-116.906667a102.4 102.4 0 0 0-34.133334-198.826667z m0 136.533334a34.133333 34.133333 0 1 1 0-68.266667 34.133333 34.133333 0 0 1 0 68.266667z" fill="#2657E7" p-id="1275"></path></svg>